<svg width="1024" height="1024" viewBox="0 0 1024 1024" fill="none" xmlns="http://www.w3.org/2000/svg">
<path d="M361.301 604.789C342.062 604.789 326.535 589.164 326.535 570.023C326.535 550.688 342.16 535.551 361.301 535.551H378V497.855H361.301C342.16 497.855 326.535 482.719 326.535 463.383C326.535 444.242 342.062 428.617 361.301 428.617C380.441 428.617 396.066 444.242 396.066 463.383V480.18H433.664V463.383C433.664 444.242 449.289 428.617 468.43 428.617C487.668 428.617 503.195 444.242 503.195 463.383C503.195 482.719 487.668 497.855 468.43 497.855H451.828V535.551H468.43C487.668 535.551 503.195 550.688 503.195 570.023C503.195 589.164 487.668 604.789 468.43 604.789C449.289 604.789 433.664 589.164 433.664 570.023V553.227H396.066V570.023C396.066 589.164 380.637 604.789 361.301 604.789ZM361.691 480.18H378V463.773C378 454.301 370.383 446.781 361.301 446.781C352.219 446.781 344.699 454.301 344.699 463.48C344.699 472.66 352.316 480.18 361.691 480.18ZM468.43 446.781C459.348 446.781 451.828 454.301 451.828 463.773V480.18H468.137C477.512 480.18 485.031 472.66 485.031 463.48C485.031 454.301 477.512 446.781 468.43 446.781ZM396.066 535.551H433.664V497.855H396.066V535.551ZM344.699 569.926C344.699 579.105 352.219 586.625 361.301 586.625C370.383 586.625 378 579.105 378 569.633V553.227H361.691C352.316 553.227 344.699 560.746 344.699 569.926ZM451.828 569.633C451.828 579.105 459.348 586.625 468.43 586.625C477.512 586.625 485.031 579.105 485.031 569.926C485.031 560.746 477.512 553.227 468.137 553.227H451.828V569.633ZM596.574 457.426C596.574 451.469 601.066 447.074 607.316 447.074C610.051 447.074 612.688 448.148 615.031 450.395L672.453 508.695C674.309 510.551 675.48 512.797 675.871 515.336V456.645C675.871 450.59 680.461 446 686.516 446C692.57 446 697.16 450.59 697.16 456.645V577.055C697.16 583.109 692.57 587.504 686.516 587.504C680.461 587.504 675.871 583.109 675.871 577.055V518.168C675.48 520.805 674.309 523.051 672.453 524.906L615.031 583.207C612.688 585.453 610.051 586.527 607.316 586.527C601.066 586.527 596.574 582.133 596.574 576.176C596.574 573.051 597.844 570.316 599.797 568.363L617.961 549.906L643.645 526.859L624.309 527.738H541.496C534.855 527.738 530.363 523.246 530.363 516.801C530.363 510.355 534.855 505.863 541.496 505.863H624.309L643.645 506.742L617.961 483.695L599.797 465.238C597.844 463.285 596.574 460.648 596.574 457.426Z" fill="white" style="fill:white;fill-opacity:1;"/>
</svg>
